<svg version="1.1" id="Layer_1" xmlns="http://www.w3.org/2000/svg" xmlns:xlink="http://www.w3.org/1999/xlink" x="0px" y="0px"
	 width="100%" viewBox="0 0 1024 1024" enable-background="new 0 0 1024 1024" xml:space="preserve">
<path fill="#000000" opacity="1.000000" stroke="none" 
	d="
M531.565674,418.616730 
	C537.895325,403.882935 544.156616,389.534393 550.195190,375.092804 
	C551.482300,372.014648 553.230530,370.770538 556.552307,370.790009 
	C574.045837,370.892426 591.540710,370.896179 609.033997,370.773315 
	C612.858643,370.746460 614.342041,372.050537 614.331238,375.994690 
	C614.226929,414.148254 614.441650,452.303436 614.178467,490.455505 
	C614.034302,511.352478 594.831238,530.113037 573.622498,530.302612 
	C545.633972,530.552795 517.641907,530.408630 489.651337,530.416077 
	C474.665009,530.420105 459.678314,530.442932 444.692444,530.351440 
	C432.892181,530.279419 423.594116,523.098816 420.400238,511.832245 
	C419.873993,509.975922 419.846375,507.504150 417.110901,507.510162 
	C411.202942,507.523224 413.028137,503.162201 412.720581,500.014832 
	C412.403839,496.772705 413.102203,494.528320 417.163513,494.572388 
	C420.419006,494.607697 420.012817,491.789581 419.882263,489.733124 
	C419.719879,487.175262 421.237457,483.495117 416.870911,482.990540 
	C410.899170,482.300507 413.102814,477.830872 412.722107,474.580414 
	C412.363434,471.518219 413.181396,469.626190 416.931305,469.439911 
	C420.992737,469.238159 419.863892,465.640625 419.888275,463.208527 
	C419.911011,460.945343 420.978027,457.524872 417.102173,457.427399 
	C412.109680,457.301910 412.620483,454.025513 412.717712,450.854034 
	C412.809174,447.868927 411.658875,444.293640 416.713013,443.882202 
	C421.527130,443.490265 419.545105,439.472778 419.888245,436.837677 
	C420.234680,434.177063 419.402863,432.191528 416.159882,432.331512 
	C413.587433,432.442535 412.540955,431.093964 412.705444,428.628448 
	C412.988861,424.379913 410.770447,419.284637 418.303650,418.271210 
	C421.258423,417.873749 419.579834,413.320862 419.810181,410.644745 
	C420.007721,408.350098 418.646637,407.300903 416.423828,407.364319 
	C412.247620,407.483490 412.463623,404.461365 412.769989,401.846130 
	C413.108765,398.954071 410.740143,394.562744 416.153412,393.981934 
	C418.940155,393.682953 419.686951,392.408112 419.846619,389.806000 
	C420.634277,376.967163 426.019287,371.307404 438.697571,370.925629 
	C451.847992,370.529633 465.020111,370.907837 478.180664,370.760895 
	C481.856934,370.719818 482.950775,373.018860 484.095032,375.738373 
	C494.103485,399.525452 504.146667,423.297943 514.200562,447.065826 
	C514.886597,448.687622 515.253418,450.522522 517.224915,452.276520 
	C522.070129,440.905762 526.743958,429.937286 531.565674,418.616730 
M467.721588,500.017426 
	C464.098938,500.201904 461.711456,499.414490 461.733765,494.874878 
	C461.861420,468.877930 461.843750,442.879761 461.726105,416.882690 
	C461.707794,412.836273 463.433258,411.732605 467.154297,411.754150 
	C470.859192,411.775635 474.707245,412.571472 478.657349,410.881500 
	C476.383270,402.939178 472.771423,395.825439 469.751099,388.488281 
	C469.111511,386.934570 467.661713,386.407623 466.054993,386.411530 
	C458.057343,386.430847 450.055389,386.327362 442.064301,386.572296 
	C439.150787,386.661591 436.278473,388.011444 435.535034,391.146515 
	C434.491516,395.547089 434.965210,400.097473 435.284454,404.581543 
	C435.401428,406.225311 436.720062,406.806396 438.158234,406.726105 
	C442.590240,406.478729 443.549927,409.020966 443.217194,412.743378 
	C442.902161,416.268005 444.692413,420.955048 438.390442,421.034485 
	C435.409912,421.072021 434.860168,423.205872 435.098816,425.548920 
	C435.346954,427.985046 433.695068,432.278381 437.132050,432.328491 
	C445.052429,432.444000 443.015228,437.671814 443.195465,441.992188 
	C443.310028,444.738739 442.395325,446.568054 439.232574,446.352631 
	C434.410187,446.024078 435.021515,449.537323 435.028625,452.464996 
	C435.035645,455.350403 434.251251,458.934723 439.134430,458.628754 
	C442.633270,458.409515 443.562347,460.547485 443.130981,463.394257 
	C442.649750,466.570221 445.329773,471.529053 439.338501,471.980194 
	C435.306732,472.283813 434.858246,474.476624 434.950012,477.643799 
	C435.044312,480.899200 434.754456,483.772125 439.610016,484.101044 
	C445.154297,484.476654 442.698761,489.347473 443.124695,492.416595 
	C443.502594,495.139526 442.887115,497.565948 439.278748,497.322662 
	C435.568359,497.072510 434.907104,499.194550 434.871735,502.328522 
	C434.768921,511.444977 437.824799,514.679077 447.050140,514.682922 
	C487.213165,514.699768 527.376282,514.719055 567.539246,514.673889 
	C584.999329,514.654236 598.252869,502.347198 598.490662,484.759888 
	C598.914062,453.435303 598.578735,422.100769 598.656677,390.770660 
	C598.665649,387.160706 597.066650,386.236847 593.772705,386.313873 
	C586.777222,386.477417 579.742249,386.780579 572.785889,386.233551 
	C566.885437,385.769592 564.330200,388.248199 562.151245,393.442596 
	C550.618530,420.934570 538.566650,448.208832 527.039551,475.703094 
	C524.924133,480.748688 521.810791,481.597046 517.047485,481.496826 
	C512.339417,481.397766 508.736511,481.354126 506.514374,475.774963 
	C499.551605,458.293640 491.904602,441.084625 484.504639,423.777863 
	C483.475891,421.371887 482.345642,419.009277 481.262360,416.626587 
	C480.235992,440.878021 480.294769,464.703247 480.211670,488.527924 
	C480.168976,500.768646 481.982574,500.040833 467.721588,500.017426 
z"/>
<path fill="#000000" opacity="1.000000" stroke="none" 
	d="
M340.874451,601.947388 
	C340.058197,618.234741 340.509583,634.057678 340.561310,649.874756 
	C340.573486,653.595154 339.648682,655.275146 335.547119,655.276794 
	C325.657867,655.280762 325.660065,655.457825 325.661438,645.697388 
	C325.663452,631.727356 325.661957,617.757385 324.691193,603.427185 
	C319.990570,612.456055 315.280579,621.480103 310.594269,630.516357 
	C308.907715,633.768494 307.068848,636.964111 305.679199,640.341797 
	C304.177307,643.992371 301.701782,645.109863 297.890076,645.073120 
	C294.239929,645.037903 292.211426,643.735596 290.553070,640.439087 
	C284.641174,628.687500 278.404633,617.099121 272.282654,605.453369 
	C271.932648,604.787537 271.509003,604.160461 270.362335,602.260681 
	C270.362335,617.780029 270.398468,631.873230 270.349884,645.966125 
	C270.316376,655.686829 271.762451,655.043579 260.796387,655.264465 
	C256.157593,655.357910 254.734680,653.685059 254.765305,649.164795 
	C254.927841,625.174133 254.935791,601.181274 254.772141,577.190735 
	C254.741486,572.697815 256.218994,571.286621 260.728363,570.871948 
	C267.860138,570.216309 271.884460,572.624695 275.009521,579.254761 
	C281.537109,593.103516 288.990570,606.516357 296.092957,620.092896 
	C296.603790,621.069458 296.797546,622.341370 298.587646,622.968811 
	C300.928680,618.491150 303.314117,613.974304 305.658173,609.436035 
	C311.620300,597.893188 317.535065,586.325867 323.532379,574.801392 
	C325.328064,571.350830 336.678864,569.327576 339.645874,571.815979 
	C340.664429,572.670166 340.749237,573.835632 340.650787,575.007385 
	C339.908722,583.836914 340.813141,592.650635 340.874451,601.947388 
z"/>
<path fill="#000000" opacity="1.000000" stroke="none" 
	d="
M763.308350,614.640137 
	C777.025635,627.334351 773.086121,646.705872 755.837463,652.813721 
	C751.426514,654.375549 746.893372,655.298523 742.145691,655.244202 
	C732.316650,655.131714 722.483215,655.076111 712.656311,655.253967 
	C708.667542,655.326111 706.879211,654.025085 706.898743,649.845825 
	C707.013245,625.354004 707.010254,600.861511 706.986938,576.369263 
	C706.983765,573.028442 707.883057,570.925415 711.746521,571.015930 
	C723.062805,571.281006 734.404358,570.372314 745.697693,571.703796 
	C757.346680,573.077148 765.101379,580.188232 766.870667,591.051453 
	C767.950439,597.681458 765.564148,602.977966 757.979675,610.676270 
	C759.063782,612.711487 761.511475,612.961731 763.308350,614.640137 
M760.791809,635.240234 
	C763.407349,626.520386 757.645203,619.538696 749.264221,617.528931 
	C739.590759,615.209045 729.741150,616.673645 719.967896,616.537781 
	C717.829041,616.508118 717.201965,617.969421 717.205933,619.887634 
	C717.221375,627.369873 717.232239,634.852295 717.191467,642.334351 
	C717.176941,645.002502 718.654114,645.720825 721.011169,645.705200 
	C728.992188,645.652100 736.992126,645.993896 744.949402,645.549866 
	C751.649109,645.175964 757.748840,643.030823 760.791809,635.240234 
M741.245728,607.042053 
	C750.694275,606.370911 756.551147,601.469055 756.712646,594.097168 
	C756.876465,586.617676 752.014282,581.731567 742.270447,580.798157 
	C735.345215,580.134888 728.318054,580.467407 721.336853,580.491821 
	C718.597412,580.501343 717.125732,581.921204 717.177124,584.897278 
	C717.280579,590.884338 717.293030,596.876282 717.172974,602.862793 
	C717.105103,606.244507 718.870544,607.153198 721.839111,607.118347 
	C727.993713,607.046082 734.149475,607.080078 741.245728,607.042053 
z"/>
<path fill="#000000" opacity="1.000000" stroke="none" 
	d="
M566.141357,628.380127 
	C562.187927,628.379578 558.710938,628.379578 555.231140,628.379578 
	C555.325623,635.631348 561.727478,641.815308 569.499207,642.659607 
	C575.323853,643.292297 580.928772,642.480957 585.657349,638.923462 
	C588.802063,636.557434 590.732849,636.667725 593.439331,639.701050 
	C599.521179,646.517395 599.663086,646.605652 591.620361,651.351562 
	C570.545410,663.787842 544.387207,653.349182 539.202271,630.433594 
	C535.881653,615.757507 542.606567,600.341370 555.201599,593.756958 
	C568.940430,586.574585 585.477844,589.351196 595.415833,600.517883 
	C601.164673,606.977539 602.784180,614.857483 603.269470,623.160828 
	C603.490784,626.947815 602.088867,628.539734 598.093262,628.462097 
	C587.604919,628.258179 577.110107,628.385376 566.141357,628.380127 
M565.783508,604.109497 
	C559.682434,605.899658 556.174866,609.975403 554.497009,616.548523 
	C565.744324,616.548523 576.366577,616.548523 587.024353,616.548523 
	C586.268005,606.885437 578.077026,602.011719 565.783508,604.109497 
z"/>
<path fill="#000000" opacity="1.000000" stroke="none" 
	d="
M419.818848,639.596802 
	C411.757355,652.625000 400.007935,657.642944 385.586792,656.078491 
	C372.199219,654.626160 362.736572,647.342407 358.102203,634.502258 
	C353.056244,620.521790 357.795166,604.655334 369.201477,596.452820 
	C381.948944,587.285889 399.063782,587.606628 411.580322,597.247070 
	C422.827423,605.909729 426.952942,622.091858 421.467590,636.097473 
	C421.043427,637.180420 420.495972,638.215149 419.818848,639.596802 
M406.852264,615.911438 
	C400.395935,602.345032 384.632507,599.864868 375.759064,611.019287 
	C369.627563,618.726868 370.594727,631.412354 377.798523,637.769104 
	C385.283356,644.373840 395.934113,643.899292 402.917877,636.679077 
	C408.523499,630.883728 408.661774,623.960754 406.852264,615.911438 
z"/>
<path fill="#000000" opacity="1.000000" stroke="none" 
	d="
M636.994324,571.012451 
	C645.472717,571.023926 653.491333,570.684387 661.261353,573.041138 
	C680.306030,578.817505 692.673218,595.466431 691.934143,614.264832 
	C691.131104,634.690674 678.268433,650.078918 657.842102,654.176453 
	C645.690247,656.614136 633.283936,654.886963 620.994568,655.119934 
	C617.938538,655.177917 617.765320,652.852844 617.764099,650.559204 
	C617.759949,642.570557 617.743347,634.581970 617.742004,626.593323 
	C617.739258,610.283203 617.741028,593.973083 617.745911,577.662964 
	C617.747803,571.151794 617.807800,571.089600 624.512878,571.042664 
	C628.507080,571.014709 632.501526,571.021606 636.994324,571.012451 
M628.051941,602.500000 
	C628.048279,615.145020 628.016724,627.790222 628.067261,640.434998 
	C628.076111,642.645508 627.493408,645.629822 631.071777,645.594055 
	C640.023926,645.504700 649.054565,646.699524 657.893982,644.359497 
	C673.530090,640.220337 682.854431,626.575317 681.671204,609.662170 
	C680.638367,594.899902 669.018372,583.227844 653.583374,581.074524 
	C646.439331,580.077820 639.298401,580.651978 632.161560,580.367859 
	C629.144653,580.247803 627.987305,581.589111 628.035278,584.529785 
	C628.127563,590.185120 628.053833,595.843201 628.051941,602.500000 
z"/>
<path fill="#000000" opacity="1.000000" stroke="none" 
	d="
M442.151367,622.760498 
	C438.083435,612.865295 434.165955,603.325195 430.274872,593.774475 
	C430.098267,593.340942 430.160858,592.810120 430.060425,591.810486 
	C434.714661,590.295227 439.464142,590.724670 444.151672,591.382812 
	C446.210724,591.671997 446.654449,593.863586 447.331757,595.542297 
	C451.750610,606.494385 456.115112,617.468506 460.584045,628.400024 
	C461.497894,630.635437 461.978821,633.153442 464.395905,635.326294 
	C466.527008,630.176758 468.592560,625.347290 470.530212,620.467102 
	C473.722717,612.426575 477.003265,604.414001 479.902374,596.267090 
	C481.275330,592.408875 483.313293,590.820007 487.529633,590.848267 
	C498.657013,590.922852 498.650269,590.735413 494.380157,601.037659 
	C487.756104,617.019287 480.984589,632.942871 474.629181,649.030762 
	C472.834503,653.573669 470.445648,655.062927 465.516846,655.412903 
	C457.993713,655.946899 453.981964,653.552124 451.691376,646.220703 
	C449.220734,638.312866 445.488647,630.799194 442.151367,622.760498 
z"/>
<path fill="#000000" opacity="1.000000" stroke="none" 
	d="
M524.262695,600.063354 
	C524.249207,616.883911 524.110840,633.214355 524.300598,649.541016 
	C524.352112,653.969727 522.777344,655.313965 518.481018,655.273621 
	C508.831909,655.183044 508.825684,655.365662 508.832916,645.938416 
	C508.845398,629.609375 508.975433,613.279236 508.808777,596.952087 
	C508.762024,592.370300 510.473022,590.445557 514.966003,590.921021 
	C515.130676,590.938477 515.299011,590.922546 515.465637,590.920105 
	C524.234558,590.792419 524.234558,590.792297 524.262695,600.063354 
z"/>
<path fill="#000000" opacity="1.000000" stroke="none" 
	d="
M507.382935,572.106140 
	C508.789703,565.627319 512.388855,562.570557 517.549683,563.117004 
	C522.521545,563.643433 526.220642,567.584961 526.228455,572.364624 
	C526.236450,577.257324 522.554443,581.124817 517.543396,581.487305 
	C511.772644,581.904785 508.476746,578.991211 507.382935,572.106140 
z"/>
<path fill="#000000" opacity="1.000000" stroke="none" 
	d="
M575.949951,461.000000 
	C575.944702,472.496979 575.826050,483.495636 575.990784,494.490051 
	C576.052124,498.584167 574.519043,500.139252 570.429077,500.060364 
	C553.113098,499.726410 555.953369,501.834015 555.858826,485.992737 
	C555.723633,463.332947 555.955566,440.670715 555.762207,418.011810 
	C555.720825,413.172546 557.335266,411.631439 562.097717,411.781708 
	C577.742615,412.275574 575.877014,409.359528 575.958984,425.509216 
	C576.018127,437.172485 575.956665,448.836395 575.949951,461.000000 
z"/>
</svg>